<?xml version="1.0" encoding="utf-8"?>
<!-- Generator: Adobe Illustrator 25.2.0, SVG Export Plug-In . SVG Version: 6.00 Build 0)  -->
<svg version="1.1" id="Layer_1" xmlns="http://www.w3.org/2000/svg" xmlns:xlink="http://www.w3.org/1999/xlink" x="0px" y="0px"
	 viewBox="0 0 110 110" enable-background="new 0 0 110 110" xml:space="preserve">
<rect x="8.9" y="22.6" fill="#F0F0F0" width="92.2" height="61.8"/>
<rect x="8.9" y="22.6" fill="#5496FF" width="92.2" height="6.7"/>
<g>
	<path fill="#FFFFFF" d="M98.8,26c0,0.9-0.7,1.6-1.6,1.6c-0.9,0-1.6-0.7-1.6-1.6c0-0.9,0.7-1.6,1.6-1.6C98.1,24.3,98.8,25,98.8,26z"
		/>
	<path fill="#FFFFFF" d="M93,26c0,0.9-0.7,1.6-1.6,1.6c-0.9,0-1.6-0.7-1.6-1.6c0-0.9,0.7-1.6,1.6-1.6C92.2,24.3,93,25,93,26z"/>
	<path fill="#FFFFFF" d="M87.1,26c0,0.9-0.7,1.6-1.6,1.6c-0.9,0-1.6-0.7-1.6-1.6c0-0.9,0.7-1.6,1.6-1.6C86.4,24.3,87.1,25,87.1,26z"
		/>
</g>
<rect x="15.9" y="36.4" fill="#83B6FF" width="3.8" height="21.9"/>
<rect x="21" y="38.7" fill="#FFC800" width="3.8" height="19.6"/>
<rect x="26.2" y="44.8" fill="#83B6FF" width="3.8" height="13.5"/>
<rect x="31.3" y="41" fill="#FFC800" width="3.8" height="17.3"/>
<rect x="36.4" y="48.8" fill="#83B6FF" width="3.8" height="9.5"/>
<rect x="41.6" y="37.2" fill="#FFC800" width="3.8" height="21.1"/>
<rect x="46.7" y="44" fill="#83B6FF" width="3.8" height="14.3"/>
<rect x="64" y="32.3" fill="#CACCCC" width="34.8" height="2.6"/>
<rect x="64" y="38" fill="#CACCCC" width="34.8" height="2.6"/>
<polygon fill="#CACCCC" points="98.8,69.4 63.5,69.4 63.5,44.4 64.5,44.4 64.5,68.5 98.8,68.5 "/>
<g>
	<polygon fill="#30EDFC" points="67.5,66.4 66.7,65.8 73.4,57.5 77.5,63.7 81.3,58.9 85.3,60.6 91.2,49.7 92,50.1 85.7,61.8 
		81.6,60.1 77.4,65.3 73.4,59.1 	"/>
	<g>
		<path fill="#30EDFC" d="M93,47.4c-0.2,1.4-0.3,3.3,0,4.7l-1.6-1.8L89,49.9C90.3,49.4,91.9,48.3,93,47.4z"/>
	</g>
</g>
<rect x="64" y="72.2" fill="#CACCCC" width="34.8" height="2.6"/>
<rect x="64" y="77.7" fill="#CACCCC" width="34.8" height="2.6"/>
<polygon fill="#B4B4B4" points="55,58.8 12.1,58.8 12.1,32.3 13,32.3 13,57.8 55,57.8 "/>
<g>
	<g>
		<path fill="#83B6FF" d="M21.4,72.1l7.2-5.2c2.9,4,2,9.6-2,12.5c-4,2.9-9.6,2-12.5-2c-2.9-4-2-9.6,2-12.5c1.6-1.2,3.3-1.7,5.2-1.7
			V72.1z"/>
	</g>
</g>
<g>
	<g>
		<path fill="#DCDCDC" d="M21.4,72.1v-8.9c3,0,5.5,1.3,7.2,3.7L21.4,72.1z"/>
	</g>
</g>
<g>
	<g>
		<path fill="#83B6FF" d="M48.7,79.3c-4,2.9-9.6,2-12.5-2c-2.9-4-2-9.6,2-12.5c1.6-1.2,3.3-1.7,5.2-1.7v8.9l7.2-5.3
			c0.9,1.2,1.4,2.6,1.6,4.1C52.7,74,51.5,77.3,48.7,79.3z"/>
	</g>
</g>
<g>
	<g>
		<path fill="#DCDCDC" d="M50.7,66.8l-7.2,5.3v-8.9C46.4,63.2,49,64.5,50.7,66.8z"/>
	</g>
</g>
<path fill="#DCDCDC" d="M52.3,70.9L52.3,70.9l-8.9,1.2v-8.9c3,0,5.5,1.3,7.2,3.7C51.6,68.1,52.1,69.5,52.3,70.9z"/>
<g>
	<rect x="58.3" y="32.3" fill="#DCDCDC" width="1.3" height="1.3"/>
	<path fill="#DCDCDC" d="M59.5,77.3h-1.3v-2.4h1.3V77.3z M59.5,72.4h-1.3V70h1.3V72.4z M59.5,67.6h-1.3v-2.4h1.3V67.6z M59.5,62.7
		h-1.3v-2.4h1.3V62.7z M59.5,57.9h-1.3v-2.4h1.3V57.9z M59.5,53h-1.3v-2.4h1.3V53z M59.5,48.1h-1.3v-2.4h1.3V48.1z M59.5,43.3h-1.3
		v-2.4h1.3V43.3z M59.5,38.4h-1.3V36h1.3V38.4z"/>
	<rect x="58.3" y="79.7" fill="#DCDCDC" width="1.3" height="1.3"/>
</g>
<g>
	<rect x="78.5" y="44.2" fill="#CACCCC" width="5.6" height="1.3"/>
	<rect x="71.1" y="44.2" fill="#CACCCC" width="6.2" height="1.3"/>
	<rect x="67.4" y="44.2" fill="#CACCCC" width="2.5" height="1.3"/>
	<rect x="75.7" y="47.1" fill="#CACCCC" width="8.4" height="1.3"/>
	<rect x="67.4" y="47.1" fill="#CACCCC" width="7.1" height="1.3"/>
	<rect x="79.5" y="50" fill="#CACCCC" width="4.7" height="1.3"/>
	<rect x="70.7" y="50" fill="#CACCCC" width="7.5" height="1.3"/>
	<rect x="67.4" y="50" fill="#CACCCC" width="2" height="1.3"/>
</g>
</svg>
