<?xml version="1.0" encoding="utf-8"?>
<!-- Generator: Adobe Illustrator 25.2.0, SVG Export Plug-In . SVG Version: 6.00 Build 0)  -->
<svg version="1.1" id="Layer_1" xmlns="http://www.w3.org/2000/svg" xmlns:xlink="http://www.w3.org/1999/xlink" x="0px" y="0px"
	 viewBox="0 0 110 110" enable-background="new 0 0 110 110" xml:space="preserve">
<g>
	<g>
		<path fill="#5496FF" d="M98.3,76.2c0,1.3-1.1,2.4-2.4,2.4H14c-1.3,0-2.4-1.1-2.4-2.4V23c0-1.3,1.1-2.4,2.4-2.4h81.9
			c1.3,0,2.4,1.1,2.4,2.4V76.2z"/>
	</g>
</g>
<g>
	<rect x="14.6" y="23.6" fill="#FFFFFF" width="80.6" height="50.7"/>
</g>
<g>
	<rect x="14.6" y="23.6" fill="#30EDFC" width="80.6" height="3"/>
</g>
<g>
	<rect x="14.6" y="72.5" fill="#007896" width="80.6" height="1.8"/>
</g>
<rect x="14.6" y="26.7" fill="#8BF9FC" width="80.6" height="3.5"/>
<g>
	<polygon fill="#F0F0F0" points="86.4,68.9 21.3,68.9 21.3,36.8 22.3,36.8 22.3,67.9 86.4,67.9 	"/>
	<g>
		<path fill="#F0F0F0" d="M89.3,68.4c-1.4-0.5-3.1-1.4-4.2-2.3l0.8,2.3l-0.8,2.3C86.2,69.8,88,68.9,89.3,68.4z"/>
	</g>
	<g>
		<path fill="#F0F0F0" d="M21.8,33.8c0.5,1.4,1.4,3.1,2.3,4.2l-2.3-0.8L19.5,38C20.4,36.9,21.3,35.2,21.8,33.8z"/>
	</g>
</g>
<g opacity="0.1">
	<polygon fill="#FFFFFF" points="44.2,23.6 14.6,53.2 14.6,36.8 27.8,23.6 	"/>
</g>
<g opacity="0.1">
	<polygon fill="#FFFFFF" points="95.2,41.7 95.2,63 83.8,74.4 62.6,74.4 	"/>
</g>
<polygon fill="#83B6FF" points="83.2,60.6 73.6,43.6 60.4,59.2 44.9,45.2 27.5,55.3 26.9,54.2 45.1,43.6 60.2,57.3 73,42.3 73,39.8 
	84.3,60 "/>
<path fill="#30EDFC" d="M29.6,54.8c0,1.3-1.1,2.4-2.4,2.4c-1.3,0-2.4-1.1-2.4-2.4s1.1-2.4,2.4-2.4C28.5,52.4,29.6,53.5,29.6,54.8z"
	/>
<path fill="#30EDFC" d="M47.4,44.4c0,1.3-1.1,2.4-2.4,2.4s-2.4-1.1-2.4-2.4c0-1.3,1.1-2.4,2.4-2.4S47.4,43.1,47.4,44.4z"/>
<path fill="#30EDFC" d="M62.7,57.9c0,1.3-1.1,2.4-2.4,2.4c-1.3,0-2.4-1.1-2.4-2.4s1.1-2.4,2.4-2.4C61.6,55.5,62.7,56.6,62.7,57.9z"
	/>
<path fill="#30EDFC" d="M76,42.5c0,1.3-1.1,2.4-2.4,2.4s-2.4-1.1-2.4-2.4s1.1-2.4,2.4-2.4S76,41.2,76,42.5z"/>
<path fill="#30EDFC" d="M86.1,60.3c0,1.3-1.1,2.4-2.4,2.4c-1.3,0-2.4-1.1-2.4-2.4s1.1-2.4,2.4-2.4C85.1,57.9,86.1,59,86.1,60.3z"/>
<g>
	<rect x="61.1" y="33.9" fill="#F0F0F0" width="5.8" height="1.3"/>
	<rect x="53.4" y="33.9" fill="#F0F0F0" width="6.4" height="1.3"/>
	<rect x="49.5" y="33.9" fill="#F0F0F0" width="2.5" height="1.3"/>
	<rect x="58.2" y="36.8" fill="#F0F0F0" width="8.7" height="1.3"/>
	<rect x="49.5" y="36.8" fill="#F0F0F0" width="7.3" height="1.3"/>
	<rect x="62" y="39.8" fill="#F0F0F0" width="4.8" height="1.3"/>
	<rect x="52.9" y="39.8" fill="#F0F0F0" width="7.8" height="1.3"/>
	<rect x="49.5" y="39.8" fill="#F0F0F0" width="2.1" height="1.3"/>
</g>
<rect x="38.9" y="52.2" fill="#83B6FF" width="2.3" height="13.2"/>
<rect x="42" y="53.6" fill="#FFC800" width="2.3" height="11.8"/>
<rect x="45.1" y="57.3" fill="#83B6FF" width="2.3" height="8.1"/>
<rect x="48.2" y="55" fill="#FFC800" width="2.3" height="10.5"/>
<rect x="95.2" y="56.4" transform="matrix(0.7071 -0.7071 0.7071 0.7071 -20.7398 88.5389)" fill="#B4B4B4" width="2.5" height="25.7"/>
<path fill="#5496FF" d="M78.6,65.9c-2.5,0-5-0.7-7.2-1.9c-2.2-1.3-4-3.1-5.3-5.3c-1.3-2.2-1.9-4.7-1.9-7.2c0-2.5,0.7-5,1.9-7.2
	c1.3-2.2,3.1-4,5.3-5.3c4.4-2.5,10.1-2.5,14.5,0c2.2,1.3,4,3.1,5.3,5.3c1.3,2.2,1.9,4.7,1.9,7.2c0,2.5-0.7,5-1.9,7.2
	c-1.3,2.2-3.1,4-5.3,5.3C83.6,65.2,81.1,65.9,78.6,65.9z M78.6,39.9c-2,0-4,0.5-5.8,1.5c-1.7,1-3.2,2.5-4.2,4.2
	c-1,1.7-1.5,3.7-1.5,5.8c0,2,0.5,4,1.5,5.8c1,1.7,2.5,3.2,4.2,4.2c3.5,2,8,2,11.5,0c1.7-1,3.2-2.5,4.2-4.2c1-1.7,1.5-3.7,1.5-5.8
	c0-2-0.5-4-1.5-5.8c-1-1.8-2.5-3.2-4.2-4.2C82.6,40.4,80.6,39.9,78.6,39.9z"/>
<path fill="#007896" d="M106.9,80.3c-0.7,0.7-1.7,0.7-2.4,0l-14-14c-0.2-0.2-0.2-0.4-0.2-0.6c0-0.2,0.1-0.4,0.2-0.6l1.8-1.8
	c0.3-0.3,0.9-0.3,1.2,0l14,14c0.3,0.3,0.5,0.7,0.5,1.2c0,0.4-0.2,0.9-0.5,1.2L106.9,80.3z"/>
<path opacity="0.5" fill="#E6FFFF" d="M90.3,51.4c0,2.1-0.6,4.1-1.6,5.9c-1,1.8-2.5,3.3-4.3,4.3c-1.7,1-3.7,1.6-5.9,1.6
	c-2.1,0-4.1-0.6-5.9-1.6c-1.8-1-3.3-2.5-4.3-4.3c-1-1.7-1.6-3.7-1.6-5.9c0-2.1,0.6-4.1,1.6-5.9c1-1.8,2.5-3.3,4.3-4.3
	c1.7-1,3.7-1.6,5.9-1.6c2.1,0,4.1,0.6,5.9,1.6c1.8,1,3.3,2.5,4.3,4.3C89.7,47.2,90.3,49.2,90.3,51.4z"/>
<path fill="#3D8AF9" d="M93.5,63.4c-0.3-0.3-0.9-0.3-1.2,0l-0.8,0.8L107.3,80l0.2-0.2c0.3-0.3,0.5-0.7,0.5-1.2
	c0-0.4-0.2-0.9-0.5-1.2L93.5,63.4z"/>
<path fill="#5496FF" d="M101.4,83.9c0,1.1-0.9,2-2,2H10.5c-1.1,0-2-0.9-2-2v-2c0-1.1,0.9-2,2-2h88.9c1.1,0,2,0.9,2,2V83.9z"/>
<rect x="12.4" y="81.6" fill="#FFFFFF" width="18.9" height="2.7"/>
<path fill="#FFC800" d="M98.3,82.9c0,0.6-0.5,1.1-1.1,1.1c-0.6,0-1.1-0.5-1.1-1.1c0-0.6,0.5-1.1,1.1-1.1
	C97.8,81.8,98.3,82.3,98.3,82.9z"/>
<path fill="#30EDFC" d="M93.9,82.9c0,0.6-0.5,1.1-1.1,1.1c-0.6,0-1.1-0.5-1.1-1.1c0-0.6,0.5-1.1,1.1-1.1
	C93.4,81.8,93.9,82.3,93.9,82.9z"/>
</svg>
