<?xml version="1.0" encoding="utf-8"?>
<!-- Generator: Adobe Illustrator 25.2.0, SVG Export Plug-In . SVG Version: 6.00 Build 0)  -->
<svg version="1.1" id="Layer_1" xmlns="http://www.w3.org/2000/svg" xmlns:xlink="http://www.w3.org/1999/xlink" x="0px" y="0px"
	 viewBox="0 0 2455.5 791.8" enable-background="new 0 0 2455.5 791.8" xml:space="preserve">
<g>
	<g>
		<path fill="#4878AF" d="M309.3,346.2c-5.2,4.9-11,10.2-17.4,15.7c0.3-12.6,0.8-24.7,1.3-36.3c0.2-4.3,0.4-8.5,0.6-12.6
			c0.8-16.6,1.9-32.2,3-46.5v0c0.3-3.4,0.5-6.6,0.8-9.8v0c1.2-15.1,2.5-28.7,3.8-40.5c0-0.4,0.1-0.8,0.1-1.2c0,0.4,0.1,0.9,0.1,1.3
			c1.1,11.9,2.2,25.4,3.3,40.5c0.2,3.2,0.4,6.5,0.7,9.8v0c0.9,14.3,1.8,29.9,2.5,46.6c0.2,4.1,0.3,8.3,0.5,12.6
			C308.9,332.4,309.1,339.2,309.3,346.2z"/>
		<path fill="#4878AF" d="M309.6,454c-0.1,1.6-0.1,3.3-0.1,4.9c-0.5,20.2-1.1,39.4-2,56.3c-0.2,4.4-0.4,8.6-0.7,12.6
			c-1.8,31.5-4.1,52.4-6.3,52.4c-2.2,0-4.5-20.9-6.3-52.5c-0.2-4-0.5-8.2-0.7-12.6c-0.7-14.7-1.3-31.2-1.7-48.7
			c3.4-2.4,7-4.8,10.6-7.4C304.8,457.5,307.2,455.8,309.6,454z"/>
		<path fill="#4878AF" d="M499.8,433.6c-3.8,0.9-7.7,1.8-11.7,2.7c-26,6-55.9,11.6-89.1,15.8c-3.7,0.5-7.6,0.9-11.4,1.4
			c-24.4,2.8-50.6,4.7-78.2,5.4c-2.3,0.1-4.6,0.1-7,0.2c2.3-1.6,4.7-3.3,7.1-5.1c4.3-3.2,8.8-6.4,13.4-9.8
			c22.3-0.6,44.1-1.4,65.4-2.5c4-0.2,8.1-0.4,12.1-0.7c30.3-1.7,59.6-3.8,87.9-6.3C492.2,434.3,496,434,499.8,433.6z"/>
		<path fill="#4878AF" d="M465.8,508.7c-2.4,0.6-4.9,1.2-7.4,1.8c-21.4,4.9-46.5,9.6-74.7,12.9c-1,0.1-2.1,0.2-3.1,0.4
			c-22.7,2.5-47.3,4.1-73.8,4.2c-3.6,0-7.3,0-11-0.1c-0.5,0-1.1,0-1.6,0c-29.3-0.4-56.4-2.7-81.1-6.1c-1.7-0.2-3.4-0.5-5.1-0.7
			c-6-0.8-11.9-1.8-17.6-2.7c4.8-1,9.9-2.4,15.5-4.2c-0.2-0.5-0.3-1.1-0.5-1.6c1.4,0.1,2.9,0.2,4.3,0.2c0.6,0.1,1.2,0.1,1.8,0.1
			c26.3,1.4,53.6,2.2,82,2.4c1.4,0,2.9,0,4.3,0c3.2,0,6.4,0,9.6,0c25.6,0,50.4-0.5,74.3-1.4c1.5-0.1,3.1-0.1,4.6-0.2
			c25.2-1,49.4-2.5,72.7-4.4C461.3,509.1,463.5,508.9,465.8,508.7z"/>
		<path fill="#4878AF" d="M342.8,314c-4.1,3.7-8.3,7.7-12.6,11.9c-7.2-0.1-14.3-0.1-21.5-0.2c-4.1,0-8.2-0.1-12.4-0.1c-1,0-2,0-3,0
			c-27.3-0.3-54.6-0.6-81.8-0.9c-4-0.1-8-0.1-11.9-0.2c-22.1-0.3-44.1-0.5-66-0.8c-4.5-0.1-9-0.1-13.5-0.2h-0.8
			c0.3,0,0.5-0.1,0.8-0.1c4.7-0.6,9.4-1.1,14.2-1.7c21.2-2.4,43.7-4.5,67.3-6h0c3.8-0.2,7.6-0.5,11.5-0.7h0
			c25.7-1.4,52.6-2.2,80.8-2.1c1.5,0,3,0,4.5,0c3.3,0,6.5,0.1,9.8,0.1C319.9,313.3,331.5,313.6,342.8,314z"/>
		<path fill="#1C1A37" d="M486.5,327c-6.1,0-12.3-0.1-18.4-0.1c0.8-0.7,1.6-1.4,2.4-2.1C475.9,325.6,481.3,326.3,486.5,327z"/>
		<path fill="#4878AF" d="M266.5,382.6c-2,1.5-4.1,3.1-6.2,4.7c-18.3,0-36.8-0.1-55.4-0.1c-4.5,0-9.1,0-13.6,0
			c-23.9,0-48.1-0.1-72.6-0.2h-0.4c0.1,0,0.2,0,0.4,0c23.3-1.1,47.6-2.1,72.8-2.9c4.5-0.1,9.1-0.2,13.7-0.4
			C225,383.2,245.5,382.8,266.5,382.6z"/>
		<path fill="#4878AF" d="M485.4,387.3h-4.9c-25.1,0-50.7,0.1-76.8,0.1c-2.7,0-5.4,0-8,0c1.5-1.2,3-2.4,4.5-3.7
			c1.2,0.1,2.4,0.1,3.6,0.1c27.8,0.8,53.3,2,76.6,3.2C482.1,387.1,483.8,387.2,485.4,387.3z"/>
		<path fill="#4878AF" d="M360.7,259.1c2.6,2.9,4.9,5.7,6.7,8c-20.6-0.1-41.2-0.3-61.8-0.5c-2.9,0-5.8-0.1-8.7-0.1
			c-1.2,0-2.5,0-3.7,0c-23.1-0.2-46.1-0.5-69.1-0.7c-2.2,0-4.5-0.1-6.7-0.1c-17.1-0.2-34.2-0.4-51.2-0.7c-2.7,0-5.4-0.1-8-0.1
			c-0.8,0-1.6,0-2.4,0c0.9-0.1,1.8-0.2,2.8-0.3c2.9-0.3,5.9-0.7,8.8-1c16.7-1.9,34.3-3.5,52.8-4.7c2-0.1,4-0.2,6-0.4
			c21.7-1.3,44.6-1.9,68.7-1.8c1,0,1.9,0,2.9,0c2.4,0,4.9,0,7.3,0.1C324.3,257.1,342.9,257.9,360.7,259.1z"/>
		<path fill="#638BC8" d="M387.3,261.2c-1.4-0.1-2.8-0.2-4.1-0.4c-0.9-8.2-2-16.1-3-23.9C382.6,244.4,385,252.5,387.3,261.2z"/>
		<path fill="#638BC8" d="M393.1,285.1c-2.1,0.6-4.3,1.3-6.4,2.1c-0.2,0.1-0.5,0.2-0.8,0.3c-0.4-4.4-0.8-8.8-1.3-13.1
			c1.9-0.6,3.7-1.1,5.6-1.6C391.3,276.7,392.2,280.9,393.1,285.1z"/>
		<path fill="#4878AF" d="M403.7,383.8v3.6c-0.1,19-1.2,36.9-3.2,53.7c-0.4,3.8-0.9,7.5-1.4,11.1c-3.2,23-7.8,43.6-12.7,61.5
			c-0.9,3.3-1.8,6.6-2.8,9.7c-1.8,6.2-3.7,12-5.5,17.4c0.8-5.6,1.7-11.2,2.4-17c0.4-3.3,0.9-6.5,1.3-9.9c2.4-19,4.4-39.2,5.9-60.3
			c0.3-3.9,0.5-7.9,0.7-11.8c0.9-16,1.5-32.6,1.7-49.7c0.1-0.1,0.3-0.2,0.4-0.3c1.7-1.4,3.5-2.8,5.2-4.3c1.5-1.2,3-2.4,4.5-3.7
			c1.2-0.9,2.4-1.9,3.5-2.9C403.7,381.8,403.7,382.8,403.7,383.8z"/>
		<path fill="#4878AF" d="M213.1,521.7c2,11.5,4.3,22.2,6.6,32.1c-3.7-9.1-7.8-20.1-11.7-32.8c-0.7-2.3-1.4-4.6-2.1-7
			c-0.2-0.5-0.3-1.1-0.5-1.6c1.4,0.1,2.9,0.2,4.3,0.2c0.5-0.2,1.1-0.4,1.7-0.7c0,0.2,0.1,0.5,0.1,0.8
			C212.1,515.8,212.6,518.7,213.1,521.7z"/>
		<path fill="#4878AF" d="M237.8,221.5c-3.9,11.1-7.9,23.5-11.7,37c-0.7,2.4-1.3,4.8-2,7.3c-4,15.2-7.8,31.7-11,49.4h0
			c-0.5,3.2-1.1,6.4-1.6,9.6c-3,18.4-5.2,38.1-6.5,58.9c-0.1,1.1-0.1,2.3-0.2,3.4c-0.1,1.3-0.2,2.6-0.2,3.9
			c-0.5,10.9-0.7,21.6-0.6,32c-4.8,2.3-9,4.1-12.7,5.4c-0.7-11.9-0.8-24.4-0.3-37.4c0.1-1.3,0.1-2.7,0.2-4c0.1-1,0.1-2,0.2-3
			c1.2-21.4,4.2-41.3,8.2-59.5c0.7-3,1.3-5.9,2-8.8h0c4.5-18.7,10.1-35.5,15.8-50.2c0.9-2.3,1.8-4.6,2.7-6.8
			C226.2,243.9,232.5,231.4,237.8,221.5z"/>
		<path fill="#4878AF" d="M156.5,538.2c-2.8-3.1-10.1-11.5-18.4-24.4c1.8,0.7,3.7,1.4,5.5,2C148.5,525.5,153.2,533.1,156.5,538.2z"
			/>
		<path fill="#4878AF" d="M195.8,231.5c-5.6,5.3-16.5,16.1-28.5,32c-0.4,0.5-0.8,1-1.1,1.5c-11,14.8-22.7,33.9-31.9,56.8
			c-0.3,0.7-0.5,1.3-0.8,2c-7.3,18.6-12.8,39.7-15,63.2c0,0,0,0,0,0c-0.1,1.4-0.2,2.7-0.4,4.1c-0.6,7.7-0.7,15.2-0.5,22.5
			c-3.6-2.7-7.2-5.7-10.8-9.2c-1-1-2-2-3-3v0c0-9.3,0.7-18.9,2.2-28.8c2.7-18.1,7.7-34.4,14-49c0-0.1,0-0.1,0.1-0.1
			c10.5-24.3,24.7-43.8,38.1-58.6c0.1-0.1,0.2-0.2,0.3-0.4c0,0,0,0,0,0C175.2,246.1,190.6,235.1,195.8,231.5z"/>
		<path fill="#638BC8" d="M301.6,215c0,0.4,0.1,0.9,0.1,1.3c-0.1,0-0.2-0.1-0.2-0.1C301.5,215.8,301.5,215.4,301.6,215z"/>
		<path fill="#638BC8" d="M387.3,261.2c-1.4-0.1-2.8-0.2-4.1-0.4c-0.9-8.2-2-16.1-3-23.9C382.6,244.4,385,252.5,387.3,261.2z"/>
		<path fill="#638BC8" d="M75.6,356.3c4.7,11.6,10.6,20.6,15.5,26.9c-0.6-17,0.4-56.6,24.7-97.6c7.9-13.3,29.1-46.5,72.1-67.4
			c13.2-6.4,44.5-19.1,84-13.2c67.2,10,104.1,69,104.1,69c22.8-7.3,50.8-13.6,83.2-15c9.5-0.4,18.6-0.4,27.3,0
			c-8.4-12.6-18.1-24.6-29.2-35.7c-92.9-93.3-246-91.3-336.5,4.3c-25.2,26.6-42.9,57.6-53.2,90.5C67.8,327.3,69.4,341,75.6,356.3z"
			/>
		<path fill="#638BC8" d="M209.8,512.6c-1.3,0.5-2.6,0.9-3.9,1.4c-0.2-0.5-0.3-1.1-0.5-1.6C206.9,512.5,208.3,512.6,209.8,512.6z"/>
		<path fill="#E42320" d="M492.5,295.6c-49.3-14.5-82.8-8.3-103.3-1.2c-47.7,16.7-54.4,51.2-142.9,112.3
			c-46.6,32.1-67.1,34.2-79.3,33.6c-34.8-1.5-59.2-24.4-65.5-30.3c-32.5-30.6-36.5-70.3-37.2-80.8c-5.3,20.1-7.8,40.8-7.6,61.5
			c0.1,7,1,14.1,2.7,20.9c7.3,28.8,24.3,50.7,24.3,50.7c2,2.6,34.4,44.5,77.9,49.7c36.2,4.3,84-12.7,224-126.3
			C430.7,349.1,467.2,317.7,492.5,295.6z"/>
		<path fill="#638BC8" d="M456.9,554.4c-47.2,47.2-109.4,70-171.2,68.6c40-8,113.4-30.2,161.1-95.4c1.8-2.4,6.2-8.5,11.7-17.1
			c0.2-0.4,0.5-0.8,0.7-1.2c10.9-17.6,25.3-45,29.1-72.9c0.1-0.6,0.1-1.1,0.2-1.7c1.8-14.9,0.5-29.9-6-43.6c-0.5-1-1.1-2.3-1.9-3.8
			c-0.1-0.1-0.1-0.2-0.1-0.3c-3.9-7.4-12-19.7-26.8-24.8c-9.7-3.3-19.2-2.5-26.9-0.4c13.9-11.6,27.8-23.3,41.4-35
			c0.8-0.7,1.6-1.4,2.4-2.1c9.1-7.8,18.1-15.6,27-23.4c0.4-0.3,0.7-0.6,0.9-1c0.2,0.1,0.3,0.3,0.5,0.4c0,0,15.8,13,21.1,37.3
			C536.6,413.6,515.6,495.7,456.9,554.4z"/>
		<path fill="#B71818" d="M440.2,286.9c-6-0.4-16.8-0.6-29.8,1.7c-67.1,11.6-89.3,71-164.1,118.2c-15,9.4-39.2,22.9-73,33.7
			c3.5,0.6,7,0.9,10.3,1.1c23.6,1.1,43-8.7,79.3-33.6c81.9-56.4,92.5-94.2,142.9-112.3C420.5,290.3,433,288,440.2,286.9z"/>
		<path fill="#4878AF" d="M463.3,528.7c7.4-10.2,60.9-83.3,35.7-136.5c-2.1-4.5-10.8-22.7-28.8-28.8c-6-2-12.2-2.4-18.4-1.6
			c0.6,0.2,1.1,0.3,1.7,0.5c18,6.1,26.7,24.3,28.8,28.8c25.3,53.2-28.2,126.4-35.7,136.5C399,592.8,325.7,615,285.6,623
			c8.5,0.2,17.1-0.1,25.6-0.8C352.6,612.8,419,589.3,463.3,528.7z"/>
		<path fill="#638BC8" d="M268.9,204.6c1,0.1,2,0.3,3,0.4c67.2,10,104.1,69,104.1,69c4.2-1.4,8.6-2.7,13.1-3.9
			c-10.7-14.5-45.5-55.7-100.6-64C281.7,205.1,275.1,204.7,268.9,204.6z"/>
		<path fill="#B71818" d="M100.3,463.3c-16-19.7-22.8-38.9-26.7-50.2c-12.1-34.9-11.2-65.7-9.2-84c-2.3,8.3-5,20.2-6.3,34.6
			c-1.2,12.7-2.7,28.8,1.4,47.8c2.3,10.7,8.1,30.1,24.3,50.7c2,2.6,34.4,44.5,77.9,49.7c3.9,0.5,8,0.6,12.1,0.4
			C157,507.1,125.3,494.2,100.3,463.3z"/>
		<path fill="#4878AF" d="M125.4,222.9c-27.6,27.6-46.9,60.4-57.8,95.3c0.1,4.1,0.5,8.6,1.3,13.5c1.5,9.5,4,17.7,6.6,24.2
			c2.9-18.8,9.3-45.9,24.8-75.1c14.3-27,30.9-45.7,41.8-56.7c47.6-47.6,110.7-70.5,173.1-68.5C247.4,148.5,177.2,171,125.4,222.9z"
			/>
		<path fill="#638BC8" d="M444.5,285"/>
		<path fill="#638BC8" d="M137.8,538.2c16.1,16.8,41.6,38.1,77.6,50.2c107.5,36.1,206.2-43.7,214.8-51
			c-10.9,12.5-29.1,30.8-55.7,46.6c-9.5,5.7-103.4,59.4-204.2,17.2c-40.9-17.1-68.9-44.2-86.6-66.2
			C101.7,536.1,119.8,537.1,137.8,538.2z"/>
		<path fill="#638BC8" d="M435.9,283"/>
	</g>
	<path fill="#638BC8" d="M592.8,494.6c-15.5-4.1-28.1-9.5-37.8-16.3l18.9-42.5c9.1,6,19.7,10.9,31.7,14.6c12,3.7,23.9,5.5,35.5,5.5
		c22.1,0,33.2-5.5,33.2-16.6c0-5.8-3.2-10.1-9.5-12.9c-6.3-2.8-16.4-5.8-30.4-8.9c-15.3-3.3-28.1-6.8-38.4-10.6
		c-10.3-3.8-19.1-9.8-26.5-18.2c-7.4-8.3-11.1-19.6-11.1-33.8c0-12.4,3.4-23.6,10.2-33.6c6.8-10,16.9-17.9,30.4-23.7
		c13.5-5.8,30-8.7,49.6-8.7c13.4,0,26.6,1.5,39.6,4.5c13,3,24.4,7.4,34.3,13.2l-17.8,42.8c-19.4-10.5-38.2-15.7-56.5-15.7
		c-11.4,0-19.8,1.7-25,5.1c-5.2,3.4-7.9,7.8-7.9,13.2c0,5.4,3.1,9.5,9.3,12.2c6.2,2.7,16.2,5.5,30,8.4c15.5,3.3,28.4,6.8,38.6,10.6
		c10.2,3.8,19,9.8,26.5,18c7.5,8.2,11.2,19.5,11.2,33.6c0,12.2-3.4,23.3-10.2,33.2c-6.8,9.9-17,17.8-30.6,23.7
		c-13.6,5.9-30.1,8.9-49.5,8.9C624.3,500.7,608.3,498.7,592.8,494.6z"/>
	<path fill="#638BC8" d="M904.9,353.7c11.9,11.6,17.9,29.2,17.9,52.7v90.2h-55.3v-81.2c0-21.5-8.6-32.3-25.9-32.3
		c-9.5,0-17.1,3.1-22.8,9.3c-5.7,6.2-8.6,15.5-8.6,27.9v76.2h-55.3V280.7h55.3v72.8c6-5.6,13.1-9.9,21.2-12.8
		c8.1-2.9,16.9-4.4,26.2-4.4C877.2,336.3,893,342.1,904.9,353.7z"/>
	<path fill="#638BC8" d="M993.2,488.8c-13.6-7-24.2-16.7-31.9-29.1c-7.7-12.4-11.5-26.5-11.5-42.2c0-15.5,3.8-29.5,11.5-41.9
		c7.7-12.4,18.2-22.1,31.7-29c13.5-6.9,28.8-10.3,45.8-10.3c17.1,0,32.4,3.4,46,10.3c13.6,6.9,24.2,16.5,31.7,28.8
		c7.6,12.3,11.3,26.3,11.3,42.1c0,15.7-3.8,29.8-11.3,42.2c-7.6,12.4-18.1,22.1-31.7,29.1c-13.6,7-28.9,10.5-46,10.5
		C1022,499.2,1006.8,495.7,993.2,488.8z M1062.8,445.3c6.2-6.7,9.3-16,9.3-27.8c0-11.6-3.1-20.8-9.3-27.4
		c-6.2-6.6-14.2-9.9-23.9-9.9c-9.7,0-17.7,3.3-23.9,9.9c-6.2,6.6-9.3,15.7-9.3,27.4c0,11.8,3.1,21.1,9.3,27.8
		c6.2,6.7,14.2,10,23.9,10C1048.6,455.3,1056.6,452,1062.8,445.3z"/>
	<path fill="#638BC8" d="M1292,346.3c11.7,6.7,21,16.2,27.9,28.5c6.9,12.3,10.3,26.6,10.3,42.9s-3.4,30.6-10.3,42.9
		c-6.9,12.3-16.2,21.8-27.9,28.5c-11.7,6.7-24.8,10-39.1,10c-18.4,0-33.1-5.5-43.9-16.6v70.4h-55.3V338.9h52.7v15.7
		c10.3-12.2,25.8-18.3,46.6-18.3C1267.2,336.3,1280.2,339.6,1292,346.3z M1265,445.3c6.2-6.7,9.3-15.9,9.3-27.5s-3.1-20.8-9.3-27.5
		c-6.2-6.7-14.2-10-23.9-10c-9.7,0-17.7,3.3-23.9,10c-6.2,6.7-9.3,15.9-9.3,27.5s3.1,20.8,9.3,27.5c6.2,6.7,14.2,10,23.9,10
		C1250.9,455.3,1258.8,452,1265,445.3z"/>
	<path fill="#638BC8" d="M1355,392.4h85v42.5h-85V392.4z"/>
	<path fill="#638BC8" d="M1508.3,488.8c-13.8-7-24.5-16.7-32.2-29.1c-7.7-12.4-11.5-26.5-11.5-42.2c0-15.7,3.8-29.7,11.5-42.1
		c7.7-12.3,18.4-21.9,32.2-28.8c13.8-6.9,29.4-10.3,46.9-10.3c17.8,0,33.3,3.8,46.3,11.5c13,7.7,22.2,18.3,27.6,31.9l-42.8,21.8
		c-7.2-14.2-17.7-21.2-31.4-21.2c-9.9,0-18.1,3.3-24.6,9.9c-6.5,6.6-9.7,15.7-9.7,27.4c0,11.8,3.2,21.1,9.7,27.8
		c6.5,6.7,14.7,10,24.6,10c13.8,0,24.2-7.1,31.4-21.2l42.8,21.8c-5.4,13.6-14.7,24.2-27.6,31.9c-13,7.7-28.4,11.5-46.3,11.5
		C1537.7,499.2,1522.1,495.7,1508.3,488.8z"/>
	<path fill="#638BC8" d="M1799.5,353.7c11.9,11.6,17.9,29.2,17.9,52.7v90.2h-55.3v-81.2c0-21.5-8.6-32.3-25.9-32.3
		c-9.5,0-17.1,3.1-22.8,9.3c-5.7,6.2-8.6,15.5-8.6,27.9v76.2h-55.3V280.7h55.3v72.8c6-5.6,13.1-9.9,21.2-12.8
		c8.1-2.9,16.9-4.4,26.2-4.4C1771.8,336.3,1787.5,342.1,1799.5,353.7z"/>
	<path fill="#638BC8" d="M2014.7,431.7H1900c2.3,8.1,6.8,14.4,13.5,18.8s15.1,6.5,25.2,6.5c7.6,0,14.1-1.1,19.6-3.2
		c5.5-2.1,11.1-5.6,16.7-10.5l29.1,30.3c-15.3,17.1-37.7,25.6-67.2,25.6c-18.4,0-34.6-3.5-48.6-10.5c-14-7-24.8-16.7-32.4-29.1
		c-7.7-12.4-11.5-26.5-11.5-42.2c0-15.5,3.7-29.4,11.2-41.8c7.5-12.3,17.8-22,31-29c13.2-7,28-10.5,44.5-10.5
		c15.7,0,30,3.3,42.8,9.7c12.8,6.5,22.9,15.9,30.4,28.2c7.5,12.3,11.2,26.9,11.2,43.8C2015.5,418.4,2015.3,423,2014.7,431.7z
		 M1910.1,382.8c-5.7,4.9-9.4,11.4-10.9,19.8h64.6c-1.6-8.3-5.2-14.9-10.9-19.8c-5.7-4.8-12.9-7.3-21.4-7.3
		C1922.9,375.6,1915.8,378,1910.1,382.8z"/>
	<path fill="#638BC8" d="M2074.9,488.8c-13.8-7-24.5-16.7-32.2-29.1c-7.7-12.4-11.5-26.5-11.5-42.2c0-15.7,3.8-29.7,11.5-42.1
		c7.7-12.3,18.4-21.9,32.2-28.8c13.8-6.9,29.4-10.3,46.9-10.3c17.8,0,33.3,3.8,46.3,11.5c13,7.7,22.2,18.3,27.6,31.9l-42.8,21.8
		c-7.2-14.2-17.7-21.2-31.4-21.2c-9.9,0-18.1,3.3-24.6,9.9c-6.5,6.6-9.7,15.7-9.7,27.4c0,11.8,3.2,21.1,9.7,27.8
		c6.5,6.7,14.7,10,24.6,10c13.8,0,24.2-7.1,31.4-21.2l42.8,21.8c-5.4,13.6-14.7,24.2-27.6,31.9c-13,7.7-28.4,11.5-46.3,11.5
		C2104.3,499.2,2088.7,495.7,2074.9,488.8z"/>
	<polygon fill="#638BC8" points="2243.4,496.6 2271.3,496.6 2271.3,469.5 	"/>
	<polygon fill="#E42320" points="2327.8,338.9 2271.3,393.9 2271.3,280.7 2216,280.7 2216,496.6 2230.9,496.6 2282,447.1 
		2287.6,441.3 2287.8,441.5 2389.5,342.8 2393.3,338.9 	"/>
	<polygon fill="#638BC8" points="2331.5,411.1 2293.2,448.3 2331.9,496.6 2398.8,496.6 	"/>
</g>
</svg>
