<svg id="Layer_1" data-name="Layer 1" xmlns="http://www.w3.org/2000/svg" viewBox="0 0 4500.45 1137.77"><defs><style>.cls-1{fill:#fff;}.cls-2{fill:#36a9e1;}</style></defs><path class="cls-1" d="M286.93,1731.75c-2.07,69-54.55,118.75-120.14,120.13-44.19.69-89.76-9.66-140.85-63.52l50.4-70.42c14.5,18,31.07,33.14,59.38,39.35,28.31,6.91,51.78-4.83,57.31-29,9-36.59-28.31-67.66-73.88-96-51.79-35.21-104.95-82.85-101.5-156,2.76-69,54.55-118.75,120.14-120.14,40.73-.69,88.38,9,140.85,62.84l-50.4,70.42c-34.52-44.19-103.57-61.45-118.76-15.88-15.19,36.59,32.45,72.5,76,100.81C237.9,1610.23,290.38,1657.87,286.93,1731.75Z" transform="translate(-17.49 -1077.89)"/><path class="cls-1" d="M701.21,1615.75v230.61H614.9V1615.75c0-58.69-33.14-97.35-87.68-97.35s-86.31,38.66-86.31,97.35v230.61h-86.3v-504h86.3v127c19.33-21.41,47.64-37.29,86.31-37.29C630.79,1432.09,701.21,1512.88,701.21,1615.75Z" transform="translate(-17.49 -1077.89)"/><path class="cls-1" d="M2375.92,1638.08c0,116-93.21,209.21-211.28,209.21a208.69,208.69,0,0,1-122.9-39.36v136h-86.31V1638.08c0-118.75,93.21-212,209.21-212C2282.71,1426.12,2375.92,1519.33,2375.92,1638.08Zm-87.69,0c0-69-55.24-124.28-123.59-124.28s-122.9,54.55-122.9,124.28c0,67.67,55.24,122.9,122.9,122.9C2233,1761,2288.23,1705.75,2288.23,1638.08Z" transform="translate(-17.49 -1077.89)"/><path class="cls-1" d="M1310.17,1617.57c-9-.08-18.12-.21-27.2-.34l26.86,18.12,5.9,3.94,31.69-21.3C1335,1617.87,1322.65,1617.7,1310.17,1617.57Zm-141.45,120.5h-.22l-71.1-47.69-24.87-16.68c-.93,33.94-.76,66.78.3,98.48q74.34,2.22,151.47,2.92Zm141.45-120.5c-9-.08-18.12-.21-27.2-.34l26.86,18.12,5.9,3.94,31.69-21.3C1335,1617.87,1322.65,1617.7,1310.17,1617.57Zm-141.45,120.5h-.22l-71.1-47.69-24.87-16.68c-.93,33.94-.76,66.78.3,98.48q74.34,2.22,151.47,2.92Zm141.45-120.5c-9-.08-18.12-.21-27.2-.34l26.86,18.12,5.9,3.94,31.69-21.3C1335,1617.87,1322.65,1617.7,1310.17,1617.57Zm-141.45,120.5h-.22l-71.1-47.69-24.87-16.68c-.93,33.94-.76,66.78.3,98.48q74.34,2.22,151.47,2.92Zm700.86-273,78.81-57.69-541.78,367-51.13,34.12-9.33,6.23-31.23,20.83-4.11-2.71-27.28-18.2-59.23-39.55-55.58-37h-.22l-71.1-47.69-24.87-16.68-34.83-23.38v-26.6c.17-3.14.34-6.28.51-9.37.17-2.8.38-5.56.55-8.32a9.39,9.39,0,0,0-1.06,0V1452.44l20.11,13.49,30.59,20.58,113.54,76.29,6,4,55.37,37.26,19.64,13.19,26.86,18.12,5.9,3.94,639.7-416.06-161,94.42a566.29,566.29,0,0,0-301.74-216c-301.07-89.57-617.71,81.93-707.27,383s81.92,617.71,383,707.28,617.71-81.93,707.28-383A566.4,566.4,0,0,0,1869.58,1465.08Zm-700.86,273h-.22l-71.1-47.69-24.87-16.68c-.93,33.94-.76,66.78.3,98.48q74.34,2.22,151.47,2.92Zm141.45-120.5c-9-.08-18.12-.21-27.2-.34l26.86,18.12,5.9,3.94,31.69-21.3C1335,1617.87,1322.65,1617.7,1310.17,1617.57Zm-141.45,120.5h-.22l-71.1-47.69-24.87-16.68c-.93,33.94-.76,66.78.3,98.48q74.34,2.22,151.47,2.92Zm141.45-120.5c-9-.08-18.12-.21-27.2-.34l26.86,18.12,5.9,3.94,31.69-21.3C1335,1617.87,1322.65,1617.7,1310.17,1617.57Zm-141.45,120.5h-.22l-71.1-47.69-24.87-16.68c-.93,33.94-.76,66.78.3,98.48q74.34,2.22,151.47,2.92Zm141.45-120.5c-9-.08-18.12-.21-27.2-.34l26.86,18.12,5.9,3.94,31.69-21.3C1335,1617.87,1322.65,1617.7,1310.17,1617.57Z" transform="translate(-17.49 -1077.89)"/><path class="cls-2" d="M1355.48,1808.5l-.25,6.11q-3.69,79.17-9.46,154.26c-.89,11.63-1.78,23.17-2.76,34.67q-6.1,73.89-14,143.53-6.36-69.69-10.9-144c-.72-11.45-1.36-23-2-34.66q-3.56-66.12-5.34-135.6l4.11,2.71,31.23-20.83Z" transform="translate(-17.49 -1077.89)"/><path class="cls-2" d="M1360.66,1604.71c0,1.49,0,2.93,0,4.42l-13.2,8.86-31.69,21.3-5.9-3.94c0-4.25.13-8.49.21-12.73,0-1.7,0-3.35.13-5,0-4.45.13-8.91.26-13.32q1.71-79.74,6-155.71c.59-11.59,1.23-23.08,1.95-34.54q4-65.24,9.55-127.45c.8-9,1.61-18,2.46-26.9q5.48-58.62,12.09-114.3,4.71,56.07,8.36,114.77c.59,8.91,1.1,17.9,1.61,26.9q3.57,62.43,5.69,127.7.5,17.25,1,34.67Q1360.94,1525.25,1360.66,1604.71Z" transform="translate(-17.49 -1077.89)"/><path class="cls-2" d="M1283.53,1814.65c-74.08-1.11-144.09-5.56-209.38-12.18-10.48-1.06-20.88-2.21-31.1-3.35-72.56-8.32-139-19.26-198.52-31.19-11.42-2.24-22.58-4.58-33.48-6.91q-5.67-1.21-11.2-2.42c3.61.26,7.25.51,10.86.72q16.35,1.15,32.92,2.17,95.48,6,196.62,9.63,16.21.57,32.58,1.06,74.34,2.22,151.47,2.92Z" transform="translate(-17.49 -1077.89)"/><path class="cls-2" d="M1873.7,1750.67a2410.39,2410.39,0,0,1-273.62,47.94c-10.18,1.19-20.53,2.33-31,3.39-66.78,6.92-138.27,11.5-213.88,12.61-3,.08-6,.12-9.08.12l9.33-6.23,51.13-34.12q84.08-1.45,164.83-4.83,16.49-.65,32.84-1.4Q1744.29,1761.78,1873.7,1750.67Z" transform="translate(-17.49 -1077.89)"/><path class="cls-2" d="M1779.32,1955.53c-139.14,10.24-291.59,15.7-455.49,13-153.54-2.49-296.67-11.78-427.93-25a1835.29,1835.29,0,0,0,883.42,12Z" transform="translate(-17.49 -1077.89)"/><path class="cls-2" d="M1625.92,1430.89l-20.62,13.87-13,8.7-.56.34h-.21l-16-.26q-108-2-216.42-4.15c-11.37-.22-22.7-.47-34.07-.68-2.88,0-5.73-.13-8.61-.17q-110.86-2.3-221.35-4.75-16.15-.33-32.33-.73-89.67-2-179.09-4.2l-36.57-.89c-.68,0-1.4,0-2.08,0l2.21-.25c12.68-1.45,25.58-2.85,38.61-4.2h0c57.66-6,118.59-11,182.61-14.39q15.52-.88,31.31-1.57c69.5-3.18,142.47-4.58,218.59-3.52,4.2,0,8.4.09,12.64.17q13.62.25,27.12.55c75.3,1.78,147.47,5.86,216.17,11.54q14.63,1.15,29,2.51C1610.9,1429.45,1618.41,1430.17,1625.92,1430.89Z" transform="translate(-17.49 -1077.89)"/><path class="cls-2" d="M1038.76,1606c-.17,2.76-.38,5.52-.55,8.32a1.77,1.77,0,0,0-.51,0q-96.93-1.2-196.48-2.54h-.94c.3,0,.64,0,.94,0,62.92-2.38,128.55-4.33,196.48-5.65A9.39,9.39,0,0,1,1038.76,1606Z" transform="translate(-17.49 -1077.89)"/><path class="cls-2" d="M1367.07,1604.8l-6.45,4.33-13.2,8.86c-12.39-.12-24.77-.29-37.25-.42-9-.08-18.12-.21-27.2-.34L1263.33,1604q23.42,0,47.1.21c15.31.08,30.71.25,46.2.42,1.36,0,2.71,0,4,0C1362.82,1604.76,1365,1604.76,1367.07,1604.8Z" transform="translate(-17.49 -1077.89)"/><path class="cls-2" d="M1836.15,1623.13q-97.5-1-198.78-2l12.44-8.35h0C1717,1615.75,1779.13,1619.31,1836.15,1623.13Z" transform="translate(-17.49 -1077.89)"/><path class="cls-2" d="M945.51,1278q185.6,4.56,372.65,8.37,201,4.08,400.37,7.2a2879.29,2879.29,0,0,0-773-15.57Z" transform="translate(-17.49 -1077.89)"/><path class="cls-2" d="M1605.3,1444.76l-13,8.7-.56.34h-.21l-15.61,10.65c-.13-3.65-.26-7.3-.43-10.91-.38-9.16-.76-18.24-1.22-27.28-2.38-47-5.78-92.11-9.93-135.3-.6-5.85-1.15-11.62-1.74-17.39q-3.51-33.61-7.51-65.6c6.28,20.37,12.6,42.64,18.67,66.74,1.4,5.39,2.75,10.91,4.07,16.46a1337.4,1337.4,0,0,1,25.46,137.6C1604,1434,1604.66,1439.37,1605.3,1444.76Z" transform="translate(-17.49 -1077.89)"/><path class="cls-2" d="M1614.21,1636.71c-1.19,46.2-4.71,90.11-9.93,131.44-1.27,10.31-2.67,20.49-4.2,30.46a1338,1338,0,0,1-36.19,168.18c-2.59,9.08-5.18,18-7.81,26.52-5.13,16.89-10.35,32.76-15.48,47.56q3.69-22.9,7.13-46.67,1.9-13.37,3.77-27c7-52.15,13.07-107.26,17.61-165.18.8-10.69,1.61-21.51,2.33-32.45q3.51-52.38,5.22-107.6Z" transform="translate(-17.49 -1077.89)"/><path class="cls-2" d="M1110.76,2072c-9.8-25-20.58-55.28-30.8-90.15q-3.37-11.46-6.62-23.55a1074.41,1074.41,0,0,1-30.29-159.19q-1.6-13.81-2.8-28a1059.64,1059.64,0,0,1-2.63-145.87c0-.51,0-1,.08-1.53v26.6l34.83,23.38c-.93,33.94-.76,66.78.3,98.48.34,10.22.81,20.32,1.32,30.29,2.92,56.51,8.57,109,15.74,156.9,1.23,8.36,2.54,16.5,3.86,24.56C1099,2015.54,1104.78,2045,1110.76,2072Z" transform="translate(-17.49 -1077.89)"/><path class="cls-2" d="M1169.31,1161.39c-11,30.42-22.1,64.15-32.71,101-1.91,6.53-3.82,13.19-5.64,19.94-11.46,41.49-22.15,86.64-31.19,135.17q-2.48,13-4.71,26.27c-2.37,14-4.62,28.21-6.66,42.72l-30.59-20.58c1.57-7.72,3.23-15.36,4.92-22.87,1.83-8.1,3.74-16.12,5.73-24a1085.17,1085.17,0,0,1,44.25-137.17c2.55-6.36,5.09-12.6,7.64-18.66A1103.83,1103.83,0,0,1,1169.31,1161.39Z" transform="translate(-17.49 -1077.89)"/><path class="cls-2" d="M939.7,2027.69c-33.33-53.54-116.35-203.08-99.53-404.53,20.36-243.9,173.08-396.27,215-435.54C1022.54,1210,845.06,1336.05,807.55,1572,767.87,1821.71,915.76,1999.84,939.7,2027.69Z" transform="translate(-17.49 -1077.89)"/><path class="cls-1" d="M1038.76,1606c-.17,2.76-.38,5.52-.55,8.32-.17,3.09-.34,6.23-.51,9.37v-17.65A9.39,9.39,0,0,1,1038.76,1606Z" transform="translate(-17.49 -1077.89)"/><path class="cls-1" d="M1784.28,1324.5" transform="translate(-17.49 -1077.89)"/><rect class="cls-2" x="2496.02" y="260.35" width="2004.43" height="510.93"/><path class="cls-1" d="M2886.35,1772.53a209,209,0,0,1-162.25,76.64c-116.69,0-210.59-93.9-210.59-211.28,0-116,93.9-209.89,210.59-209.89a205.66,205.66,0,0,1,149.82,64.21l-47,77.33c-22.09-33.84-59.38-55.24-102.87-55.24-67.67,0-124.29,55.24-124.29,123.59s56.62,125,124.29,125c47,0,84.23-29,100.11-60.76Z" transform="translate(-17.49 -1077.89)"/><path class="cls-1" d="M3295.11,1611.65v230.61H3208.8V1611.65c0-58.68-33.14-97.35-87.68-97.35s-86.31,38.67-86.31,97.35v230.61H2948.5v-504h86.31v127c19.33-21.4,47.64-37.28,86.31-37.28C3224.68,1428,3295.11,1508.78,3295.11,1611.65Z" transform="translate(-17.49 -1077.89)"/><path class="cls-1" d="M3662.45,1711.77l69,61.45c-44.88,60.07-122.9,76-169.16,76-116,0-209.2-93.9-209.2-211.28,0-116,93.21-209.89,209.2-209.89,103.57,0,172.61,76,181.59,142.23L3485,1735.93c21.41,17.27,48.33,28.31,76.64,29.69C3602.38,1767.69,3645.88,1747,3662.45,1711.77Zm-225.78-76a115.12,115.12,0,0,0,6.22,38l201.6-128.43c-18.64-22.78-47.63-35.21-81.47-35.21C3494,1510.16,3436.67,1564,3436.67,1635.82Z" transform="translate(-17.49 -1077.89)"/><path class="cls-1" d="M4161.66,1772.53a209,209,0,0,1-162.26,76.64c-116.68,0-210.58-93.9-210.58-211.28,0-116,93.9-209.89,210.58-209.89a205.67,205.67,0,0,1,149.83,64.21l-46.95,77.33c-22.1-33.84-59.38-55.24-102.88-55.24-67.66,0-124.28,55.24-124.28,123.59s56.62,125,124.28,125c46.95,0,84.24-29,100.12-60.76Z" transform="translate(-17.49 -1077.89)"/><path class="cls-1" d="M4493.78,1434.9l-111.85,179.52c85.61,31.75,79.4,146.37,136,146.37v88.38c-129.8,0-114.61-183-213.34-183v176.06h-82.17V1359h82.17v220.94l97.35-145Z" transform="translate(-17.49 -1077.89)"/></svg>