<?xml version="1.0" encoding="utf-8"?>
<!-- Generator: Adobe Illustrator 25.2.0, SVG Export Plug-In . SVG Version: 6.00 Build 0)  -->
<svg version="1.1" id="Layer_1" xmlns="http://www.w3.org/2000/svg" xmlns:xlink="http://www.w3.org/1999/xlink" x="0px" y="0px"
	 viewBox="0 0 15147.3 3864.8" style="enable-background:new 0 0 15147.3 3864.8;" xml:space="preserve">
<style type="text/css">
	.st0{fill:url(#SVGID_1_);}
	.st1{fill:url(#SVGID_2_);}
	.st2{fill:url(#SVGID_3_);}
	.st3{fill:url(#SVGID_4_);}
	.st4{fill:#36A9E1;}
	.st5{fill:#FFFFFF;}
</style>
<g>
	<linearGradient id="SVGID_1_" gradientUnits="userSpaceOnUse" x1="10.4604" y1="-277.5349" x2="1492.7606" y2="5481.2861">
		<stop  offset="0" style="stop-color:#1C1A37"/>
		<stop  offset="1" style="stop-color:#4878B0"/>
	</linearGradient>
	<path class="st0" d="M992.6,2216.7c-6.9,231-182.5,397.3-401.9,401.9c-147.8,2.3-300.3-32.3-471.2-212.5l168.6-235.6
		c48.5,60.1,103.9,110.9,198.7,131.7c94.7,23.1,173.2-16.2,191.7-97c30-122.4-94.7-226.4-247.2-321.1
		c-173.2-117.8-351.1-277.2-339.6-522c9.2-231,182.5-397.3,401.9-401.9c136.3-2.3,295.7,30,471.2,210.2l-168.6,235.6
		c-115.5-147.8-346.5-205.6-397.3-53.1C348.1,1475.2,507.5,1595.3,653,1690C828.6,1810.1,1004.1,1969.5,992.6,2216.7z"/>
	<linearGradient id="SVGID_2_" gradientUnits="userSpaceOnUse" x1="1097.1539" y1="-557.2459" x2="2579.4541" y2="5201.5752">
		<stop  offset="0" style="stop-color:#1C1A37"/>
		<stop  offset="1" style="stop-color:#4878B0"/>
	</linearGradient>
	<path class="st1" d="M2378.6,1828.6v771.5h-288.7v-771.5c0-196.3-110.9-325.7-293.4-325.7s-288.7,129.4-288.7,325.7v771.5H1219
		V913.9h288.7v425c64.7-71.6,159.4-124.7,288.7-124.7C2143,1214.2,2378.6,1484.5,2378.6,1828.6z"/>
	<linearGradient id="SVGID_3_" gradientUnits="userSpaceOnUse" x1="6187.6694" y1="-1867.5265" x2="7669.9697" y2="3891.2947">
		<stop  offset="0" style="stop-color:#1C1A37"/>
		<stop  offset="1" style="stop-color:#4878B0"/>
	</linearGradient>
	<path class="st2" d="M7981.3,1903.3c0,388.1-311.8,699.9-706.8,699.9c-154.8,0-295.7-48.5-411.2-131.7v455h-288.7V1903.3
		c0-397.3,311.8-709.1,699.9-709.1C7669.4,1194.2,7981.3,1506,7981.3,1903.3z M7687.9,1903.3c0-231-184.8-415.8-413.5-415.8
		c-228.7,0-411.2,182.5-411.2,415.8c0,226.4,184.8,411.2,411.2,411.2C7503.1,2314.5,7687.9,2129.7,7687.9,1903.3z"/>
	<linearGradient id="SVGID_4_" gradientUnits="userSpaceOnUse" x1="2581.0178" y1="1932.4044" x2="6574.5366" y2="1932.4044">
		<stop  offset="0" style="stop-color:#1C1A37"/>
		<stop  offset="1" style="stop-color:#4878B0"/>
	</linearGradient>
	<path class="st3" d="M4415.8,1834.7c-30.2-0.3-60.6-0.7-91-1.1l89.9,60.6l19.7,13.2l106-71.3
		C4499,1835.7,4457.6,1835.1,4415.8,1834.7z M3942.6,2237.8h-0.7L3704,2078.3l-83.2-55.8c-3.1,113.6-2.6,223.4,1,329.4
		c165.8,5,334.7,8.4,506.7,9.8L3942.6,2237.8z M4415.8,1834.7c-30.2-0.3-60.6-0.7-91-1.1l89.9,60.6l19.7,13.2l106-71.3
		C4499,1835.7,4457.6,1835.1,4415.8,1834.7z M3942.6,2237.8h-0.7L3704,2078.3l-83.2-55.8c-3.1,113.6-2.6,223.4,1,329.4
		c165.8,5,334.7,8.4,506.7,9.8L3942.6,2237.8z M4415.8,1834.7c-30.2-0.3-60.6-0.7-91-1.1l89.9,60.6l19.7,13.2l106-71.3
		C4499,1835.7,4457.6,1835.1,4415.8,1834.7z M3942.6,2237.8h-0.7L3704,2078.3l-83.2-55.8c-3.1,113.6-2.6,223.4,1,329.4
		c165.8,5,334.7,8.4,506.7,9.8L3942.6,2237.8z M6287.3,1324.6c87.9-64.3,175.8-128.7,263.7-193
		c-604.2,409.3-1208.3,818.5-1812.5,1227.8l-171,114.1l-31.2,20.9l-104.5,69.7l-13.8-9.1l-91.3-60.9l-198.1-132.3l-185.9-123.9h-0.7
		L3704,2078.3l-83.2-55.8l-116.5-78.2v-89c0.6-10.5,1.1-21,1.7-31.4c0.6-9.4,1.3-18.6,1.8-27.8c-1.1,0-2.4,0-3.5,0.1v-514l67.3,45.1
		l102.3,68.8l379.8,255.2l20.2,13.3l185.2,124.6l65.7,44.1l89.9,60.6l19.7,13.2c713.4-464,1426.7-928,2140.1-1391.9
		c-179.5,105.3-359,210.6-538.4,315.9c-90.1-127-248.6-317.9-497.9-483.6c-153.9-102.3-325.3-183.7-511.6-239
		C4019.4-190.9,2960.1,382.8,2660.4,1390C2361,2397.2,2934.5,3456.5,3941.7,3756.2c1007.2,299.5,2066.5-274.1,2366.2-1281.3
		C6424.3,2083.4,6408.8,1684.1,6287.3,1324.6z M3942.6,2237.8h-0.7L3704,2078.3l-83.2-55.8c-3.1,113.6-2.6,223.4,1,329.4
		c165.8,5,334.7,8.4,506.7,9.8L3942.6,2237.8z M4415.8,1834.7c-30.2-0.3-60.6-0.7-91-1.1l89.9,60.6l19.7,13.2l106-71.3
		C4499,1835.7,4457.6,1835.1,4415.8,1834.7z M3942.6,2237.8h-0.7L3704,2078.3l-83.2-55.8c-3.1,113.6-2.6,223.4,1,329.4
		c165.8,5,334.7,8.4,506.7,9.8L3942.6,2237.8z M4415.8,1834.7c-30.2-0.3-60.6-0.7-91-1.1l89.9,60.6l19.7,13.2l106-71.3
		C4499,1835.7,4457.6,1835.1,4415.8,1834.7z M3942.6,2237.8h-0.7L3704,2078.3l-83.2-55.8c-3.1,113.6-2.6,223.4,1,329.4
		c165.8,5,334.7,8.4,506.7,9.8L3942.6,2237.8z M4415.8,1834.7c-30.2-0.3-60.6-0.7-91-1.1l89.9,60.6l19.7,13.2l106-71.3
		C4499,1835.7,4457.6,1835.1,4415.8,1834.7z"/>
	<g>
		<path class="st4" d="M4567.4,2473.4c-0.3,6.8-0.6,13.6-0.9,20.4c-8.2,176.6-18.9,348.6-31.7,516.1c-3,38.9-6,77.5-9.2,116
			c-13.6,164.8-29.4,324.9-46.7,480.2c-14.2-155.4-26.4-316.1-36.5-481.6c-2.4-38.3-4.5-77.1-6.7-116
			c-7.9-147.5-14.1-298.8-17.9-453.6l13.8,9.1l104.5-69.7L4567.4,2473.4z"/>
		<path class="st4" d="M4584.7,1791.7c-0.1,5-0.1,9.8-0.1,14.8l-44.1,29.7l-106,71.3l-19.7-13.2c0.1-14.2,0.4-28.4,0.7-42.6
			c0.1-5.7,0.1-11.2,0.4-16.9c0.1-14.9,0.4-29.8,0.8-44.6c3.8-177.9,10.6-351.6,20-520.9c2-38.7,4.1-77.2,6.5-115.5
			c8.9-145.5,19.7-287.6,31.9-426.4c2.7-30.2,5.4-60.2,8.2-90c12.2-130.7,25.8-258.2,40.5-382.4c10.5,125.1,20,253.1,28,384
			c2,29.8,3.7,59.9,5.4,90c7.9,139.2,14.3,281.8,19,427.2c1.1,38.5,2.3,77.1,3.3,116C4583.6,1441.2,4585.5,1614.6,4584.7,1791.7z"/>
		<path class="st4" d="M4326.7,2494c-247.8-3.7-482-18.6-700.5-40.7c-35.1-3.5-69.8-7.4-104-11.2c-242.7-27.8-465-64.4-664.1-104.3
			c-38.2-7.5-75.5-15.3-112-23.1c-12.6-2.7-25.1-5.4-37.5-8.1c12.1,0.9,24.3,1.7,36.3,2.4c36.5,2.6,73.2,5,110.1,7.2
			c212.9,13.5,432.4,24.4,657.8,32.2c36.2,1.3,72.5,2.4,109,3.5c165.8,5,334.7,8.4,506.7,9.8L4326.7,2494z"/>
		<path class="st4" d="M6301.1,2280c-260.5,61.3-567.9,119.9-915.4,160.4c-34.1,4-68.7,7.8-103.6,11.4
			c-223.4,23.1-462.6,38.5-715.5,42.2c-10.1,0.3-20.2,0.4-30.4,0.4l31.2-20.9l171-114.1c187.5-3.3,371.3-8.7,551.4-16.2
			c36.8-1.4,73.4-3,109.9-4.7C5712,2324.3,6012.7,2304.2,6301.1,2280z"/>
		<path class="st4" d="M5985.4,2965.4c-465.5,34.3-975.5,52.5-1523.8,43.6c-513.6-8.4-992.5-39.4-1431.6-83.8
			c361.1,94.9,841.6,185.8,1411.6,199.4C5070.7,3139.6,5599.4,3055.6,5985.4,2965.4z"/>
		<path class="st4" d="M5472.2,1210.2l-69,46.4l-43.4,29.1l-1.8,1.1h-0.7c-17.9-0.3-35.8-0.6-53.7-0.9
			c-240.9-4.4-482.3-9.1-724-13.9c-38-0.7-75.9-1.6-114-2.3c-9.7-0.1-19.2-0.4-28.8-0.6c-247.3-5.1-494.1-10.4-740.5-15.9
			c-36.1-0.7-72.1-1.6-108.2-2.4c-200-4.4-399.7-9.1-599.1-14.1c-40.9-1-81.6-2-122.4-3c-2.3,0-4.7-0.1-7-0.1c2.4-0.3,5-0.6,7.4-0.9
			c42.4-4.8,85.6-9.5,129.2-14.1h0.1c192.9-20,396.7-36.6,610.9-48.1c34.6-2,69.5-3.7,104.8-5.3c232.5-10.6,476.6-15.3,731.3-11.8
			c14.1,0.1,28.1,0.3,42.3,0.6c30.4,0.6,60.6,1.1,90.7,1.8c251.9,6,493.4,19.6,723.2,38.6c32.6,2.6,65,5.4,97.1,8.4
			C5421.9,1205.3,5447,1207.7,5472.2,1210.2z"/>
		<path class="st4" d="M3507.8,1796.1c-0.6,9.2-1.3,18.5-1.8,27.8c-0.6-0.1-1.1-0.1-1.7-0.1c-216.2-2.7-435.2-5.5-657.3-8.5h-3.1
			c1,0,2.1-0.1,3.1-0.1c210.5-7.9,430.1-14.5,657.3-18.9C3505.4,1796.1,3506.7,1796.1,3507.8,1796.1z"/>
		<path class="st4" d="M4606.2,1792l-21.6,14.5l-44.1,29.7c-41.4-0.4-82.9-1-124.6-1.4c-30.2-0.3-60.6-0.7-91-1.1l-65.7-44.1
			c52.2,0,104.8,0.3,157.6,0.7c51.2,0.3,102.8,0.9,154.6,1.4c4.5,0,9.1,0.1,13.5,0.1C4592,1791.8,4599.1,1791.8,4606.2,1792z"/>
		<path class="st4" d="M6175.5,1853.3c-217.5-2.1-439-4.3-665-6.7l41.6-28h0.1C5776.9,1828.6,5984.7,1840.5,6175.5,1853.3z"/>
		<path class="st4" d="M3195.9,698.5c413.9,10.2,829.5,19.5,1246.7,28c448.3,9.1,894.8,17.1,1339.4,24.1
			c-382.1-59.7-827.2-105.5-1323.9-113.8C3988.3,628.9,3564,656.2,3195.9,698.5z"/>
		<path class="st4" d="M5403.2,1256.6l-43.4,29.1l-1.8,1.1h-0.7l-52.2,35.6c-0.4-12.2-0.9-24.4-1.4-36.5c-1.3-30.7-2.6-61-4.1-91.3
			c-7.9-157.1-19.3-308.2-33.2-452.6c-2-19.6-3.8-38.9-5.8-58.2c-7.8-74.9-16.2-148.2-25.1-219.4c21,68.1,42.2,142.7,62.5,223.3
			c4.7,18,9.2,36.5,13.6,55.1c33.1,137.8,63,291.8,85.2,460.3C5398.8,1220.7,5401,1238.6,5403.2,1256.6z"/>
		<path class="st4" d="M5433,1898.7c-4,154.6-15.8,301.5-33.2,439.7c-4.3,34.5-8.9,68.6-14.1,101.9
			c-31.2,210.2-74.7,398.9-121.1,562.7c-8.7,30.4-17.3,60-26.1,88.7c-17.2,56.5-34.6,109.6-51.8,159.1c8.2-51.1,16.2-103,23.8-156.1
			c4.3-29.8,8.5-59.9,12.6-90.4c23.6-174.4,43.7-358.8,58.9-552.6c2.7-35.8,5.4-72,7.8-108.6c7.8-116.8,13.8-236.9,17.5-360
			L5433,1898.7z"/>
		<path class="st4" d="M3748.7,3355c-32.8-83.7-68.8-184.9-103-301.6c-7.5-25.5-14.9-51.8-22.1-78.8
			c-41.7-154.9-78.9-333.6-101.3-532.6c-3.5-30.8-6.7-62-9.4-93.7c-13.2-152.3-17.6-315.5-8.8-488c0.1-1.7,0.1-3.4,0.3-5.1v89
			l116.5,78.2c-3.1,113.6-2.6,223.4,1,329.4c1.1,34.2,2.7,68,4.4,101.3c9.8,189.1,28.7,364.6,52.7,524.9c4.1,28,8.5,55.2,12.9,82.2
			C3709.3,3166.1,3728.7,3264.5,3748.7,3355z"/>
		<path class="st4" d="M3944.6,308.6c-36.6,101.8-74,214.6-109.4,338c-6.4,21.9-12.8,44.1-18.9,66.7
			c-38.3,138.8-74.1,289.8-104.3,452.2c-5.5,29-10.8,58.2-15.8,87.9c-7.9,46.7-15.5,94.4-22.3,142.9l-102.3-68.8
			c5.2-25.8,10.8-51.4,16.5-76.5c6.1-27.1,12.5-53.9,19.2-80.2c42.7-170.9,94.7-324.5,148-458.9c8.5-21.3,17-42.2,25.6-62.5
			C3837.8,513.2,3895.3,398.8,3944.6,308.6z"/>
		<path class="st4" d="M3176.4,3206.8c-111.5-179.1-389.2-679.4-333-1353.3c68.1-816,579-1325.7,719.3-1457.1
			c-109.2,74.7-702.9,496.5-828.4,1286.1C2601.6,2517.6,3096.4,3113.6,3176.4,3206.8z"/>
	</g>
	<g>
		<path class="st5" d="M3507.8,1796.1c-0.6,9.2-1.3,18.5-1.8,27.8c-0.6,10.4-1.1,20.9-1.7,31.4v-59
			C3505.4,1796.1,3506.7,1796.1,3507.8,1796.1z"/>
	</g>
	<path class="st5" d="M6001.9,854.3"/>
	<rect x="8441.6" y="900.2" class="st4" width="6705.8" height="1709.3"/>
	<g>
		<path class="st5" d="M9688.9,2353.1c-129.4,157.1-323.4,256.4-542.8,256.4c-390.4,0-704.5-314.1-704.5-706.8
			c0-388.1,314.1-702.2,704.5-702.2c198.6,0,376.5,83.2,501.2,214.8L9490.2,1674c-73.9-113.2-198.6-184.8-344.2-184.8
			c-226.4,0-415.8,184.8-415.8,413.5s189.4,418.1,415.8,418.1c157.1,0,281.8-97,334.9-203.3L9688.9,2353.1z"/>
		<path class="st5" d="M11056.4,1814.9v771.5h-288.7v-771.5c0-196.3-110.9-325.7-293.4-325.7s-288.7,129.4-288.7,325.7v771.5h-288.7
			V900.2h288.7v425c64.7-71.6,159.4-124.7,288.7-124.7C10820.8,1200.5,11056.4,1470.7,11056.4,1814.9z"/>
		<path class="st5" d="M12285.3,2149.8l231,205.6c-150.1,200.9-411.2,254.1-565.9,254.1c-388.1,0-699.9-314.1-699.9-706.8
			c0-388.1,311.8-702.2,699.9-702.2c346.5,0,577.5,254.1,607.5,475.8l-866.2,554.4c71.6,57.7,161.7,94.7,256.4,99.3
			C12084.4,2336.9,12229.9,2267.6,12285.3,2149.8z M11530,1895.8c0,43.9,6.9,87.8,20.8,127l674.5-429.6
			c-62.4-76.2-159.4-117.8-272.6-117.8C11721.7,1475.4,11530,1655.5,11530,1895.8z"/>
		<path class="st5" d="M13955.4,2353.1c-129.4,157.1-323.4,256.4-542.8,256.4c-390.4,0-704.5-314.1-704.5-706.8
			c0-388.1,314.2-702.2,704.5-702.2c198.6,0,376.5,83.2,501.2,214.8l-157.1,258.7c-73.9-113.2-198.7-184.8-344.2-184.8
			c-226.4,0-415.8,184.8-415.8,413.5s189.4,418.1,415.8,418.1c157.1,0,281.8-97,334.9-203.3L13955.4,2353.1z"/>
		<path class="st5" d="M15066.5,1223.6l-374.2,600.6c286.4,106.2,265.6,489.7,455,489.7v295.7c-434.2,0-383.4-612.1-713.7-612.1v589
			h-274.9V969.5h274.9v739.2l325.7-485.1H15066.5z"/>
	</g>
</g>
</svg>
