<?xml version="1.0" encoding="utf-8"?>
<!-- Generator: Adobe Illustrator 25.2.0, SVG Export Plug-In . SVG Version: 6.00 Build 0)  -->
<svg version="1.1" id="Layer_1" xmlns="http://www.w3.org/2000/svg" xmlns:xlink="http://www.w3.org/1999/xlink" x="0px" y="0px"
	 viewBox="0 0 110 110" enable-background="new 0 0 110 110" xml:space="preserve">
<path fill="#5496FF" d="M21.4,102.5c-1.5,0-2.7-1.2-2.7-2.7v-86c0-1.5,1.2-2.7,2.7-2.7h64.3c1.5,0,2.7,1.2,2.7,2.7v86
	c0,1.5-1.2,2.7-2.7,2.7H21.4z"/>
<rect x="21.4" y="13.8" fill="#F5F5F5" width="64.3" height="86"/>
<rect x="53.1" y="13.8" fill="#FFFFFF" width="32.6" height="86"/>
<rect x="43.8" y="7.7" fill="#FFC800" width="19.6" height="10.3"/>
<path fill="#FFC800" d="M53.6,11.4c-2.1,0-3.8-1.7-3.8-3.8c0-2.1,1.7-3.8,3.8-3.8c2.1,0,3.8,1.7,3.8,3.8
	C57.4,9.7,55.7,11.4,53.6,11.4z M53.6,5.2c-1.4,0-2.5,1.1-2.5,2.5c0,1.4,1.1,2.5,2.5,2.5c1.4,0,2.5-1.1,2.5-2.5
	C56,6.3,54.9,5.2,53.6,5.2z"/>
<rect x="53.1" y="20.8" fill="#83B6FF" width="4.4" height="25.6"/>
<rect x="59.1" y="23.5" fill="#FFC800" width="4.4" height="22.8"/>
<rect x="65.1" y="30.6" fill="#83B6FF" width="4.4" height="15.7"/>
<rect x="71.1" y="26.1" fill="#FFC800" width="4.4" height="20.2"/>
<rect x="77.1" y="35.2" fill="#83B6FF" width="4.4" height="11.1"/>
<g>
	<rect x="25.1" y="20.8" fill="#CACCCC" width="22.4" height="2.7"/>
	<rect x="25.1" y="25.3" fill="#CACCCC" width="22.4" height="2.7"/>
	<rect x="25.1" y="29.9" fill="#CACCCC" width="22.4" height="2.7"/>
	<rect x="25.1" y="34.5" fill="#CACCCC" width="22.4" height="2.7"/>
	<rect x="25.1" y="39.1" fill="#CACCCC" width="22.4" height="2.7"/>
</g>
<rect x="25.1" y="49.5" fill="#CACCCC" width="56.4" height="2.7"/>
<rect x="25.1" y="54.2" fill="#B4B4B4" width="56.4" height="2.7"/>
<g>
	<g>
		<g>
			<path fill="#83B6FF" d="M39,80.1L50.3,72c4.5,6.2,3.1,14.9-3.1,19.5c-6.2,4.5-14.9,3.1-19.5-3.1c-4.5-6.2-3.1-14.9,3.1-19.5
				c2.5-1.8,5.1-2.7,8.2-2.7V80.1z"/>
		</g>
	</g>
</g>
<g>
	<g>
		<path fill="#CACCCC" d="M39,80.1V66.2c4.6,0,8.6,2,11.3,5.7L39,80.1z"/>
	</g>
</g>
<rect x="25.1" y="58.8" fill="#B4B4B4" width="56.4" height="2.7"/>
<g>
	<rect x="59.1" y="77.7" fill="#CACCCC" width="22.4" height="2.7"/>
	<rect x="59.1" y="82.2" fill="#CACCCC" width="22.4" height="2.7"/>
	<rect x="59.1" y="86.8" fill="#CACCCC" width="22.4" height="2.7"/>
	<rect x="59.1" y="91.4" fill="#CACCCC" width="22.4" height="2.7"/>
</g>
<rect x="59.1" y="66.2" fill="#CACCCC" width="22.4" height="5.9"/>
<g>
	<polygon fill="#FFDC00" points="99,44.3 97,40.8 95,44.3 95.4,48 98.6,48 	"/>
</g>
<g>
	<polygon fill="#FFC800" points="95,44.3 95.4,48 97,48 97,40.8 	"/>
</g>
<g>
	<g>
		<polygon fill="#FFF064" points="97.9,48 98.2,48 98.5,44.3 97,40.8 98.1,44.3 		"/>
	</g>
</g>
<g>
	<path fill="#5A2800" d="M97,45.1c-0.2,0-0.4-0.2-0.4-0.4c0-0.2,0.2-0.4,0.4-0.4c0.2,0,0.4,0.2,0.4,0.4C97.4,44.9,97.2,45.1,97,45.1
		z"/>
</g>
<g>
	<path fill="#FFDC00" d="M94.8,48.3v-0.4c0-0.1,0-0.2,0.1-0.2c0.1-0.1,0.2-0.1,0.2-0.1l3.8,0c0.2,0,0.3,0.2,0.3,0.3v0.4L94.8,48.3z"
		/>
</g>
<g>
	<polygon fill="#5A2800" points="97,40.8 97.1,44.7 96.9,44.7 97,40.8 	"/>
</g>
<g>
	<polygon fill="#30EDFC" points="94.6,60 94.8,48.3 99.2,48.3 99.4,60 	"/>
</g>
<g>
	<path fill="#FFDC00" d="M94.6,60.8c-0.1,0-0.3-0.1-0.3-0.3v-0.3c0-0.1,0.1-0.3,0.3-0.3h4.7c0.1,0,0.3,0.1,0.3,0.3v0.3
		c0,0.1-0.1,0.3-0.3,0.3H94.6z"/>
</g>
<g>
	<path fill="#30EDFC" d="M97,102.1c-0.9,0-1.7-1.1-1.7-2.4c0,0,0,0,0,0h0c0,0-0.1-1.6-0.2-4c0-0.3,0-0.7-0.1-1
		c-0.3-6-0.8-15.7-0.8-18.5c0-5.6,0.3-15.4,0.3-15.4h4.9c0,0,0.3,9.8,0.3,15.4c0,2.8-0.5,12.4-0.8,18.5c0,0.3,0,0.7,0,1
		c-0.1,2.4-0.2,4-0.2,4h0C98.7,101,97.9,102.1,97,102.1z"/>
</g>
<g opacity="0.47">
	<path fill="#0082A0" d="M97,102.1V60.8h2.5c0,0,0.3,9.8,0.3,15.4c0,2.8-0.5,12.4-0.8,18.5c0,0.3,0,0.7,0,1c-0.1,2.4-0.2,4-0.2,4h0
		C98.7,101,97.9,102.1,97,102.1z"/>
</g>
<g opacity="0.54">
	<polygon fill="#0082A0" points="97,48.3 97,60 99.4,60 99.2,48.3 	"/>
</g>
</svg>
